<?xml version="1.0" encoding="UTF-8"?>
<svg id="Layer_1" data-name="Layer 1" xmlns="http://www.w3.org/2000/svg" viewBox="0 0 970 275">
  <defs>
    <style>
      .cls-1 {
        fill: #fff;
      }
    </style>
  </defs>
  <path class="cls-1" d="M833.52,173.59h-92.01l-18.51,49.73h-13.54l71.29-189.54h13.81l71.01,189.54h-13.54l-18.51-49.73ZM829.65,163.09l-42-113.01-42.27,113.01h84.27Z"/>
  <path class="cls-1" d="M895.69,36.96c-2.03-1.93-3.04-4.56-3.04-7.87,0-3.13,1.01-5.71,3.04-7.74,2.02-2.02,4.51-3.04,7.46-3.04s5.43,1.01,7.46,3.04c2.03,2.03,3.04,4.61,3.04,7.74,0,3.32-1.01,5.94-3.04,7.87-2.03,1.93-4.52,2.9-7.46,2.9s-5.44-.97-7.46-2.9ZM909.23,73.29v150.03h-12.43V73.29h12.43Z"/>
  <path class="cls-1" d="M374.01,183.24l-5.73,16.73c-5.5,15.74-15.74,23.61-30.71,23.61-8.56,0-14.67-2.52-18.34-7.56-1.99-2.9-2.98-6.49-2.98-10.77,0-4.89,1.22-10.92,3.67-18.11l20.63-61.88c1.38-4.13,2.06-7.41,2.06-9.86,0-3.51-1.45-5.27-4.35-5.27-4.58,0-10.12,4.66-16.62,13.98-6.5,9.32-13.03,21.58-19.6,36.79-6.57,15.21-12.3,31.21-17.19,48.02l-2.98,11.46h-32.32l27.73-99.01c.92-2.75,1.38-5.19,1.38-7.33,0-2.75-1.3-4.13-3.9-4.13-2.9,0-5.46,1.34-7.68,4.01-2.22,2.68-4.55,7.37-6.99,14.1l-4.35,11.69h-4.35l6.19-17.42c2.9-8.4,6.8-14.44,11.69-18.11,4.89-3.67,10.85-5.5,17.88-5.5,13.14,0,19.71,6.27,19.71,18.79,0,4.28-.61,8.71-1.83,13.29l-7.1,27.73c6.26-15.58,12.26-27.69,17.99-36.33,5.73-8.63,11.53-14.7,17.42-18.22,5.88-3.51,12.41-5.27,19.6-5.27,13.75,0,20.63,6.11,20.63,18.33,0,4.58-1,10.01-2.98,16.27l-22.46,67.61c-.92,2.75-1.38,4.97-1.38,6.65,0,3.21,1.45,4.81,4.35,4.81,2.44,0,4.85-1.3,7.22-3.9,2.37-2.6,4.77-7.33,7.22-14.21l4.13-11h4.35Z"/>
  <path class="cls-1" d="M392,146.57c5.73-13.6,14.21-24.98,25.44-34.15,11.23-9.17,24.64-13.75,40.22-13.75,11.92,0,21.09,3.25,27.5,9.74,6.42,6.5,9.63,15.85,9.63,28.08s-2.87,25.59-8.59,39.19c-5.73,13.6-14.21,24.98-25.44,34.15-11.23,9.17-24.64,13.75-40.22,13.75-11.92,0-21.09-3.24-27.5-9.74-6.42-6.49-9.63-15.85-9.63-28.08s2.86-25.59,8.59-39.19ZM437.95,119.52c-6.73,10.85-12.38,24.14-16.96,39.88-4.58,15.74-6.88,30.41-6.88,44,0,5.5.61,9.48,1.83,11.92,1.22,2.45,3.21,3.67,5.96,3.67,5.65,0,11.8-5.27,18.45-15.81,6.65-10.54,12.26-23.64,16.85-39.31,4.58-15.66,6.88-30.52,6.88-44.58,0-5.96-.61-10.12-1.83-12.49-1.22-2.37-3.13-3.55-5.73-3.55-5.65,0-11.84,5.43-18.56,16.27Z"/>
  <path class="cls-1" d="M581.67,146.46c-13.05,11.02-28.61,20.17-46.7,27.46-.32,5.27-.19,10.48.4,15.64.92,8.05,3.04,13.57,6.38,16.57,3.34,3,7.89,4.18,13.66,3.52,4.7-.54,9.85-2.62,15.43-6.25,5.58-3.63,10.81-9.03,15.69-16.2l3.85,1.41c-4.5,9.13-11,17.17-19.51,24.13-8.51,6.97-18.46,11.1-29.85,12.39-10.48,1.19-19.37-.64-26.69-5.5-7.32-4.85-11.56-12.37-12.71-22.54-1.54-13.51.52-27.89,6.16-43.15,5.65-15.25,14.23-28.34,25.75-39.26,11.52-10.92,24.8-17.24,39.83-18.95,6.98-.79,12.85.12,17.61,2.72,4.76,2.61,7.46,6.8,8.12,12.57,1.43,12.6-4.37,24.41-17.42,35.43ZM554.87,111.68c-4.91,6.87-9.15,15.54-12.73,26.01-3.58,10.48-5.9,21.09-6.99,31.82,10.24-5.93,18.01-11.97,23.31-18.11,5.45-6.16,9.52-12.96,12.21-20.42,2.69-7.46,3.58-15.21,2.66-23.25-.33-2.88-.86-4.82-1.58-5.82-.73-.99-1.7-1.42-2.91-1.28-4.4.5-9.06,4.18-13.97,11.05Z"/>
  <path class="cls-1" d="M709.77,119.52c0,13.75-4.43,30.14-13.29,49.16-8.86,19.02-19.48,35.95-31.86,50.77-7.79,9.32-16.39,17.57-25.78,24.75-9.4,7.18-19.06,12.45-28.99,15.81-6.11,2.29-11.54,3.44-16.27,3.44s-8.75-1.15-11.57-3.44c-2.83-2.29-4.24-5.43-4.24-9.4s1.49-7.53,4.47-10.2c2.98-2.67,6.76-4.01,11.34-4.01,9.01,0,17.19,5.27,24.52,15.81,11-5.35,20.93-12.38,29.8-21.09l-17.88-109.55c-.77-4.28-1.57-7.14-2.41-8.59-.84-1.45-2.03-2.18-3.55-2.18-1.68,0-3.29,1.15-4.81,3.44-1.53,2.29-3.52,6.8-5.96,13.52l-4.13,11.23h-4.35l5.73-16.73c3.06-8.71,6.91-14.82,11.57-18.34,4.66-3.51,10.2-5.27,16.62-5.27s11.69,1.83,15.36,5.5c3.67,3.67,6.19,10.08,7.56,19.25l10.54,78.61c6.72-9.63,12.53-19.44,17.42-29.45,4.89-10.01,8.48-19.6,10.77-28.76-6.27-3.36-11.38-7.64-15.36-12.84-3.98-5.19-5.88-10.77-5.73-16.73,0-4.73,1.37-8.52,4.13-11.35,2.75-2.83,6.49-4.24,11.23-4.24,10.08,0,15.13,6.95,15.13,20.86Z"/>
  <path class="cls-1" d="M104.12,215.05l-.27,25.66c-26.11-6.66-56.88-27.98-61.23-56.15-.65-10.86,4.62-19.71,12.03-27.14l65.11-65.32c3.98-3.99,6.96-10.24,7.01-15.74l.42-48.03c7.41,8.35,31.64,29.7,36.97,39.04,21.6,32.43,9.51,71.8-19.38,95.16,0,0-24.54,24.5-24.54,24.5-7.73,6.97-15.95,17.09-16.12,28.02Z"/>
  <path class="cls-1" d="M193.65,218.56c-17.62,16.86-41.44,26-65.67,25.63.18-15.58-2.84-39.09,10.49-50.57,0,0,80.05-80.05,80.05-80.05,15,36.01,3.45,78.94-24.86,104.98Z"/>
  <path class="cls-1" d="M46.65,140.21c-3.97,3.61-10,10.82-14.33,13.93-2.67-36.16,16.7-72.43,48.67-90.22-1.27,21.22,5.58,39.34-12.95,54.98-6.94,6.74-14.48,14.53-21.39,21.3Z"/>
</svg>